<?xml version="1.0" encoding="UTF-8"?>
<svg id="Layer_2" data-name="Layer 2" xmlns="http://www.w3.org/2000/svg" viewBox="0 0 72.21 39.83">
  <defs>
    <style>
      .cls-1 {
        fill: #f26822;
      }

      .cls-2 {
        fill: #202020;
      }
    </style>
  </defs>
  <g id="Layer_1-2" data-name="Layer 1">
    <g>
      <rect class="cls-1" y="27.69" width="72.21" height=".72"/>
      <g>
        <path class="cls-2" d="M.61,34.76c.36-.07.69-.1.98-.1.55,0,.96.12,1.23.37.27.25.41.63.41,1.15,0,1.01-.57,1.51-1.7,1.51-.17,0-.32,0-.46-.02v1.48h-.46v-4.39ZM2.47,37.03c.2-.18.3-.46.3-.84s-.09-.68-.28-.87c-.19-.18-.48-.27-.87-.27-.19,0-.37.01-.55.04v2.17c.13.02.29.03.48.03.42,0,.73-.09.92-.27Z"/>
        <path class="cls-2" d="M4.05,39.15v-4.44h.46v1.95h1.99v-1.95h.46v4.44h-.46v-2.06h-1.99v2.06h-.46Z"/>
        <path class="cls-2" d="M10.73,34.71l-1.4,2.46v1.98h-.46v-1.97l-1.43-2.47h.5l1.17,2.03,1.16-2.03h.46Z"/>
        <path class="cls-2" d="M11.42,39.17c-.17-.03-.32-.07-.46-.12v-.41c.31.11.62.16.93.16s.55-.07.71-.2c.16-.13.24-.33.24-.6,0-.15-.02-.28-.08-.38-.05-.1-.13-.19-.24-.26-.11-.07-.26-.14-.45-.21l-.21-.07c-.32-.11-.56-.26-.72-.46-.16-.19-.25-.44-.25-.75,0-.25.05-.47.16-.65.11-.18.27-.32.48-.42.21-.1.48-.15.78-.15.14,0,.28.01.42.03.14.02.27.05.38.08v.41c-.24-.08-.5-.11-.78-.11-.65,0-.98.26-.98.77,0,.14.02.26.07.36.05.1.12.18.23.25.1.07.25.14.43.2l.21.07c.33.11.59.27.75.47s.25.45.25.77c0,.26-.06.49-.17.67-.11.19-.27.33-.48.43s-.47.15-.77.15c-.15,0-.3-.01-.47-.04Z"/>
        <path class="cls-2" d="M14.05,39.15v-4.44h.46v4.44h-.46Z"/>
        <path class="cls-2" d="M18.17,38.53c-.23.38-.57.59-1.01.62.38.13.81.23,1.29.27l-.08.4c-.78-.11-1.38-.28-1.81-.5-.43-.22-.74-.52-.92-.89s-.27-.88-.27-1.51c0-1.52.53-2.28,1.58-2.28s1.58.76,1.58,2.28c0,.69-.12,1.23-.34,1.6ZM15.96,38.04c.09.28.21.47.37.59s.36.18.6.18.43-.06.59-.17c.16-.12.29-.31.37-.58.09-.27.13-.64.13-1.1s-.04-.84-.13-1.12-.21-.47-.37-.59-.36-.18-.59-.18-.43.06-.6.17-.29.31-.37.58c-.09.27-.13.64-.13,1.1s.04.84.13,1.12Z"/>
        <path class="cls-2" d="M19.95,39.03c-.21-.12-.37-.29-.47-.53-.1-.24-.15-.54-.15-.92v-2.87h.46v2.93c0,.4.08.69.24.88.16.19.41.28.75.28s.59-.09.75-.28c.16-.19.24-.48.24-.88v-2.93h.45v2.87c0,.37-.05.68-.15.92-.1.24-.26.42-.47.53s-.48.17-.82.17-.61-.06-.82-.17Z"/>
        <path class="cls-2" d="M23.66,38.74h1.97v.41h-2.43v-4.44h2.4v.41h-1.94v1.54h1.66v.41h-1.66v1.66Z"/>
        <path class="cls-2" d="M31,39.21l-.66-.58c-.13.19-.3.33-.51.43-.21.1-.46.14-.74.14-.29,0-.54-.05-.76-.16-.21-.1-.38-.25-.49-.44-.11-.19-.17-.42-.17-.67s.06-.49.17-.69c.12-.2.28-.36.49-.48-.09-.14-.16-.27-.2-.41-.04-.14-.06-.28-.06-.44,0-.41.12-.72.36-.94.24-.22.6-.33,1.07-.33.19,0,.39.02.59.07v.41c-.18-.05-.37-.07-.57-.07-.33,0-.58.07-.74.21-.16.14-.24.35-.24.64,0,.13.02.26.06.37.04.11.1.22.19.34.09.12.21.25.38.4l1.04.91c.02-.11.03-.24.03-.37,0-.28-.04-.55-.11-.8h.4c.03.13.06.26.08.4.02.14.02.27.02.4,0,.25-.03.47-.09.67l.73.64-.26.35ZM30.05,38.38l-1.15-1.01c-.14-.12-.25-.24-.35-.34-.28.21-.41.49-.41.86,0,.19.04.36.12.5s.19.25.34.33c.15.08.33.11.53.11.43,0,.74-.15.92-.45Z"/>
        <path class="cls-2" d="M33.26,34.76c.36-.07.69-.1.98-.1.55,0,.96.12,1.23.37.27.25.41.63.41,1.15,0,1.01-.57,1.51-1.7,1.51-.17,0-.32,0-.46-.02v1.48h-.46v-4.39ZM35.12,37.03c.2-.18.3-.46.3-.84s-.09-.68-.28-.87c-.19-.18-.48-.27-.87-.27-.19,0-.37.01-.55.04v2.17c.13.02.29.03.48.03.42,0,.73-.09.92-.27Z"/>
        <path class="cls-2" d="M37.16,38.74h1.97v.41h-2.43v-4.44h2.4v.41h-1.94v1.54h1.66v.41h-1.66v1.66Z"/>
        <path class="cls-2" d="M42.28,39.15l-1.26-1.84c-.08,0-.17,0-.26,0-.16,0-.32,0-.47-.01v1.85h-.46v-4.39c.18-.03.35-.06.51-.07.16-.02.33-.03.52-.03.53,0,.93.11,1.19.33s.39.55.39.98c0,.33-.08.6-.25.82s-.41.36-.73.44l1.32,1.92h-.51ZM41.7,36.7c.2-.15.3-.39.3-.72s-.09-.55-.27-.7c-.18-.15-.46-.23-.85-.23-.21,0-.41.02-.6.05v1.82c.18.01.33.02.46.02.43,0,.75-.08.95-.23Z"/>
        <path class="cls-2" d="M45.84,35.12h-1.91v1.58h1.64v.41h-1.64v2.03h-.46v-4.44h2.38v.41Z"/>
        <path class="cls-2" d="M46.23,36.93c0-1.52.53-2.28,1.58-2.28s1.58.76,1.58,2.28-.53,2.28-1.58,2.28-1.58-.76-1.58-2.28ZM48.4,38.63c.16-.12.29-.31.37-.58.09-.27.13-.64.13-1.1s-.04-.84-.13-1.12c-.09-.28-.21-.47-.37-.59-.16-.12-.36-.18-.59-.18s-.43.06-.59.17c-.16.12-.29.31-.37.58-.09.27-.13.64-.13,1.1s.04.84.13,1.12.21.47.37.59c.16.12.36.18.59.18s.43-.06.59-.17Z"/>
        <path class="cls-2" d="M52.68,39.15l-1.26-1.84c-.08,0-.17,0-.26,0-.16,0-.32,0-.47-.01v1.85h-.46v-4.39c.18-.03.35-.06.51-.07.16-.02.33-.03.52-.03.53,0,.93.11,1.19.33.26.22.39.55.39.98,0,.33-.08.6-.25.82s-.41.36-.73.44l1.32,1.92h-.51ZM52.1,36.7c.2-.15.3-.39.3-.72s-.09-.55-.27-.7c-.18-.15-.46-.23-.85-.23-.21,0-.41.02-.6.05v1.82c.18.01.33.02.46.02.43,0,.75-.08.95-.23Z"/>
        <path class="cls-2" d="M57.16,34.71h.55v4.44h-.44v-3.71l-1.28,3.09h-.41l-1.28-3.06v3.67h-.43v-4.44h.55l1.37,3.32,1.36-3.32Z"/>
        <path class="cls-2" d="M61.31,39.15l-.44-1.44h-1.62l-.44,1.44h-.46l1.38-4.44h.66l1.38,4.44h-.47ZM59.38,37.3h1.37l-.68-2.24-.68,2.24Z"/>
        <path class="cls-2" d="M64.96,34.71h.43v4.44h-.48l-2.07-3.67v3.67h-.43v-4.44h.48l2.07,3.67v-3.67Z"/>
        <path class="cls-2" d="M67.04,38.99c-.26-.15-.46-.39-.59-.72s-.21-.78-.21-1.33c0-.8.15-1.39.46-1.75.3-.36.75-.54,1.34-.54.28,0,.54.04.8.11v.41c-.13-.04-.26-.07-.39-.09-.13-.02-.26-.03-.4-.03-.3,0-.54.06-.74.17-.19.12-.34.31-.44.58-.1.27-.15.64-.15,1.11s.05.85.15,1.12c.1.27.25.47.43.58.19.11.43.17.72.17.13,0,.26-.01.39-.04.13-.02.27-.06.42-.12v.41c-.12.05-.26.08-.4.11-.15.03-.29.04-.45.04-.38,0-.69-.07-.95-.22Z"/>
        <path class="cls-2" d="M69.94,38.74h1.97v.41h-2.43v-4.44h2.4v.41h-1.94v1.54h1.66v.41h-1.66v1.66Z"/>
      </g>
      <g>
        <path class="cls-2" d="M32.22,20.99l-1.65-5.98h-6.85l-1.64,5.98h-3.37L24.65.27h5.05l5.94,20.72h-3.42ZM24.53,12.05h5.22l-2.62-9.45-2.6,9.45Z"/>
        <path class="cls-2" d="M52.14,10.91v9.91c-1.48.25-2.88.38-4.2.38-2.26,0-4.13-.36-5.62-1.08-1.49-.72-2.61-1.86-3.37-3.42-.76-1.55-1.13-3.57-1.13-6.06,0-3.68.83-6.37,2.5-8.08s4.1-2.56,7.31-2.56c1.46,0,2.82.18,4.1.53v2.94c-1.33-.35-2.6-.53-3.79-.53-1.5,0-2.73.24-3.68.73s-1.66,1.29-2.13,2.42c-.48,1.13-.71,2.66-.71,4.59s.23,3.36.69,4.47c.46,1.11,1.14,1.91,2.04,2.39.9.49,2.04.73,3.44.73.51,0,.96-.02,1.34-.06v-7.31h3.21Z"/>
      </g>
    </g>
  </g>
</svg>