<?xml version="1.0" encoding="UTF-8"?>
<svg id="Layer_2" data-name="Layer 2" xmlns="http://www.w3.org/2000/svg" viewBox="0 0 104.94 25.05">
  <defs>
    <style>
      .cls-1 {
        fill: #f26822;
      }

      .cls-2 {
        fill: #202020;
      }
    </style>
  </defs>
  <g id="Layer_1-2" data-name="Layer 1">
    <g>
      <rect class="cls-1" x="26.47" y="12.17" width="25.05" height=".72" transform="translate(26.47 51.52) rotate(-90)"/>
      <g>
        <path class="cls-2" d="M13.51,22.91l-1.65-5.98h-6.85l-1.64,5.98H0L5.94,2.19h5.05l5.94,20.72h-3.42ZM5.82,13.98h5.22l-2.62-9.45-2.6,9.45Z"/>
        <path class="cls-2" d="M33.43,12.83v9.91c-1.48.25-2.88.38-4.2.38-2.26,0-4.13-.36-5.62-1.08-1.49-.72-2.61-1.86-3.37-3.42s-1.13-3.57-1.13-6.06c0-3.68.83-6.37,2.5-8.08s4.1-2.56,7.31-2.56c1.46,0,2.82.18,4.1.53v2.94c-1.33-.35-2.6-.53-3.79-.53-1.5,0-2.73.24-3.68.73s-1.66,1.29-2.13,2.42-.71,2.66-.71,4.59.23,3.36.69,4.47,1.14,1.91,2.04,2.39,2.04.73,3.44.73c.51,0,.96-.02,1.34-.06v-7.31h3.21Z"/>
      </g>
      <g>
        <path class="cls-2" d="M44.56,2.04c.73-.13,1.38-.2,1.96-.2,1.1,0,1.92.25,2.46.74s.82,1.26.82,2.3c0,2.02-1.13,3.02-3.39,3.02-.33,0-.64-.01-.92-.04v2.95h-.92V2.04ZM48.28,6.58c.4-.36.59-.92.59-1.67s-.19-1.37-.56-1.73c-.37-.36-.95-.54-1.74-.54-.37,0-.74.03-1.1.08v4.34c.27.04.59.05.95.05.84,0,1.45-.18,1.85-.54Z"/>
        <path class="cls-2" d="M51.34,1.12h.91v3.91h.05c.21-.28.46-.48.75-.62.29-.14.6-.21.95-.21.52,0,.94.16,1.25.49.31.33.46.86.46,1.6v4.52h-.91v-4.48c0-.47-.09-.8-.28-.99-.19-.19-.46-.29-.8-.29-.26,0-.53.07-.81.2-.27.14-.49.35-.66.64v4.92h-.91V1.12Z"/>
        <path class="cls-2" d="M61.2,4.3h.94l-2.93,9.15h-.91l.85-2.64h-.3l-2.09-6.51h.97l1.72,5.69,1.76-5.69Z"/>
        <path class="cls-2" d="M62.91,10.68v-.77c.53.17,1.02.25,1.48.25s.8-.1,1.03-.29.35-.46.35-.81c0-.3-.07-.53-.22-.69-.14-.16-.37-.29-.67-.37l-.66-.17c-.51-.14-.88-.35-1.11-.64s-.35-.66-.35-1.12c0-.36.09-.69.26-.97.18-.28.44-.5.78-.66.34-.16.75-.24,1.23-.24.44,0,.86.05,1.27.14v.78c-.22-.05-.42-.09-.61-.11-.19-.02-.4-.04-.62-.04-.49,0-.85.1-1.09.3-.24.2-.36.46-.36.77,0,.27.07.49.21.65.14.16.35.28.65.36l.66.18c.54.14.92.36,1.15.65.23.29.34.67.34,1.15,0,.39-.09.73-.27,1.02-.18.29-.43.5-.77.65-.33.15-.73.22-1.2.22-.52,0-1.02-.08-1.49-.25Z"/>
        <path class="cls-2" d="M67.99,2.73c-.11-.11-.17-.26-.17-.44s.06-.34.17-.45c.11-.11.27-.17.48-.17s.36.06.47.17c.11.11.17.26.17.45s-.06.34-.17.44-.27.16-.47.16-.36-.05-.48-.16ZM68.01,10.81v-6.51h.91v6.51h-.91Z"/>
        <path class="cls-2" d="M74.1,10.2h-.06c-.15.22-.35.39-.6.53-.25.14-.54.2-.86.2-.41,0-.77-.11-1.09-.32s-.57-.56-.77-1.04c-.19-.48-.29-1.11-.29-1.89,0-1.18.25-2.06.74-2.62.49-.57,1.23-.85,2.19-.85.27,0,.56.02.86.07.3.05.56.11.78.19v8.99h-.91v-3.26ZM73.57,9.94c.23-.12.4-.3.53-.52v-4.36c-.11-.03-.24-.05-.38-.07s-.28-.03-.4-.03c-.64,0-1.13.21-1.45.61-.32.41-.49,1.08-.49,2.02,0,.66.06,1.17.19,1.54.13.37.3.63.51.77.22.14.48.21.79.21.25,0,.48-.06.71-.18Z"/>
        <path class="cls-2" d="M77.24,10.44c-.31-.32-.47-.86-.47-1.6v-4.54h.91v4.5c0,.46.09.79.28.99.19.2.45.3.78.3.26,0,.52-.07.79-.21.27-.14.48-.35.65-.64v-4.94h.91v6.51h-.77l-.07-.71h-.06c-.22.27-.48.48-.77.62-.29.14-.59.21-.92.21-.53,0-.95-.16-1.27-.49Z"/>
        <path class="cls-2" d="M87.1,7.87h-3.56c.01.57.09,1.02.22,1.36.14.33.34.57.61.71s.62.21,1.04.21c.38,0,.85-.08,1.39-.24v.78c-.27.08-.52.14-.76.18-.24.04-.48.05-.73.05-.62,0-1.13-.11-1.52-.33-.4-.22-.69-.58-.89-1.08-.2-.5-.3-1.15-.3-1.97,0-1.15.2-1.99.61-2.53s.98-.81,1.7-.81,1.25.27,1.62.8c.37.54.56,1.39.56,2.56v.31ZM83.92,5.41c-.24.35-.36.95-.38,1.81h2.67c0-.59-.07-1.06-.17-1.4-.11-.34-.25-.58-.44-.72-.19-.14-.42-.21-.69-.21-.43,0-.76.17-1,.52Z"/>
        <path class="cls-2" d="M97.97,10.93l-1.32-1.16c-.26.38-.6.67-1.03.86-.43.19-.92.29-1.47.29-.58,0-1.09-.1-1.52-.31-.43-.21-.75-.5-.98-.88-.22-.38-.34-.83-.34-1.34s.12-.98.35-1.38.56-.72.98-.96c-.19-.28-.32-.55-.41-.82s-.12-.56-.12-.87c0-.82.24-1.44.73-1.88.48-.43,1.2-.65,2.14-.65.38,0,.78.05,1.19.14v.82c-.36-.09-.75-.14-1.15-.14-.67,0-1.16.14-1.48.43-.32.28-.48.71-.48,1.27,0,.27.04.51.11.73.07.22.2.45.38.68.18.24.43.5.75.8l2.08,1.82c.04-.22.05-.47.05-.74,0-.56-.07-1.1-.21-1.61h.8c.07.25.12.52.15.79.03.28.05.54.05.79,0,.5-.06.95-.19,1.35l1.46,1.28-.53.7ZM96.07,9.27l-2.3-2.02c-.28-.25-.51-.47-.69-.68-.55.41-.83.98-.83,1.71,0,.39.08.72.23,1.01.16.28.38.5.68.65.3.15.65.23,1.06.23.87,0,1.48-.3,1.84-.91Z"/>
        <path class="cls-2" d="M44.56,15.04c.73-.13,1.38-.2,1.96-.2,1.1,0,1.92.25,2.46.74s.82,1.26.82,2.3c0,2.02-1.13,3.02-3.39,3.02-.33,0-.64-.01-.92-.04v2.95h-.92v-8.78ZM48.28,19.58c.4-.36.59-.92.59-1.67s-.19-1.37-.56-1.73c-.37-.36-.95-.54-1.74-.54-.37,0-.74.03-1.1.08v4.34c.27.04.59.05.95.05.84,0,1.45-.18,1.85-.54Z"/>
        <path class="cls-2" d="M55.44,20.87h-3.56c.01.57.09,1.02.22,1.36.14.33.34.57.61.71s.62.21,1.04.21c.38,0,.85-.08,1.39-.24v.78c-.27.08-.52.14-.76.18-.24.04-.48.05-.73.05-.62,0-1.13-.11-1.52-.33-.4-.22-.69-.58-.89-1.08-.2-.5-.3-1.15-.3-1.97,0-1.15.2-1.99.61-2.53s.98-.81,1.7-.81,1.25.27,1.62.8c.37.54.56,1.39.56,2.56v.31ZM52.26,18.41c-.24.35-.36.95-.38,1.81h2.67c0-.59-.07-1.06-.17-1.4-.11-.34-.25-.58-.44-.72-.19-.14-.42-.21-.69-.21-.43,0-.76.17-1,.52Z"/>
        <path class="cls-2" d="M56.89,17.3h.76l.08.89h.06c.18-.32.42-.55.71-.71.29-.16.6-.24.94-.24.09,0,.21.01.37.03v.87c-.1-.02-.24-.02-.42-.02-.32,0-.62.08-.91.25-.29.17-.51.4-.67.7v4.75h-.91v-6.51Z"/>
        <path class="cls-2" d="M62.65,15.07c-.2.19-.3.51-.3.93v1.3h1.69v.76h-1.69v5.75h-.91v-5.75h-1.1v-.76h1.1v-1.27c0-.66.17-1.17.52-1.51.34-.35.85-.52,1.53-.52.28,0,.54.02.76.07v.78c-.24-.04-.47-.07-.68-.07-.42,0-.72.1-.92.29Z"/>
        <path class="cls-2" d="M64.63,20.57c0-1.17.21-2.03.62-2.56.41-.54,1.01-.8,1.79-.8s1.36.27,1.78.81c.42.54.63,1.39.63,2.55s-.21,2.02-.62,2.56-1.01.81-1.79.81c-1.61,0-2.41-1.12-2.41-3.36ZM67.84,22.95c.21-.16.38-.42.49-.8.12-.38.17-.9.17-1.56s-.06-1.2-.17-1.59c-.12-.39-.28-.66-.49-.82-.21-.16-.48-.23-.8-.23s-.59.08-.8.23c-.21.15-.38.42-.5.8s-.17.9-.17,1.56.06,1.2.17,1.59c.12.39.28.66.5.82.21.16.48.23.8.23s.59-.08.8-.23Z"/>
        <path class="cls-2" d="M70.96,17.3h.76l.08.89h.06c.18-.32.42-.55.71-.71.29-.16.6-.24.94-.24.09,0,.21.01.37.03v.87c-.1-.02-.24-.02-.42-.02-.32,0-.62.08-.91.25-.29.17-.51.4-.67.7v4.75h-.91v-6.51Z"/>
        <path class="cls-2" d="M82.04,17.69c.31.33.46.86.46,1.6v4.52h-.91v-4.48c0-.86-.35-1.3-1.04-1.3-.24,0-.48.07-.73.2-.25.13-.46.35-.63.65.01.12.02.25.02.38v4.55h-.89v-4.48c0-.46-.09-.8-.27-1-.18-.2-.43-.3-.75-.3-.25,0-.5.07-.76.22-.26.14-.47.37-.63.67v4.89h-.91v-6.51h.77l.07.73h.06c.22-.28.47-.49.76-.63.28-.14.59-.21.92-.21.72,0,1.2.31,1.45.92.24-.32.51-.55.82-.7s.63-.22.95-.22c.52,0,.94.16,1.25.49Z"/>
        <path class="cls-2" d="M87.18,17.42c.32.14.56.38.73.71s.25.77.25,1.33v4.35h-.76l-.07-.71h-.06c-.18.27-.41.48-.68.61-.27.14-.58.21-.92.21s-.65-.07-.92-.21c-.26-.14-.47-.34-.62-.61s-.22-.58-.22-.95c0-.58.17-1.04.52-1.36.35-.32.89-.52,1.62-.58l1.21-.13v-.66c0-.37-.05-.66-.16-.87-.11-.21-.26-.36-.47-.44-.21-.09-.48-.13-.82-.13-.23,0-.48.02-.74.06s-.52.11-.78.19v-.78c.23-.08.5-.14.8-.19.3-.05.58-.07.85-.07.5,0,.92.07,1.24.22ZM86.64,23c.23-.12.44-.33.62-.61v-1.66l-1.14.11c-.44.04-.76.17-.97.37-.21.2-.31.48-.31.85s.09.66.28.85.45.28.8.28c.25,0,.49-.06.72-.19Z"/>
        <path class="cls-2" d="M89.93,17.3h.77l.07.73h.06c.22-.27.48-.47.77-.61s.61-.21.96-.21c.54,0,.97.16,1.28.48.31.32.47.85.47,1.58v4.55h-.91v-4.49c0-.46-.09-.79-.28-.99-.19-.2-.46-.3-.8-.3-.27,0-.54.07-.81.21s-.49.36-.66.65v4.92h-.91v-6.51Z"/>
        <path class="cls-2" d="M96.39,23.14c-.42-.53-.63-1.39-.63-2.57,0-.81.11-1.46.32-1.95.21-.49.52-.85.93-1.07.41-.22.91-.33,1.52-.33.39,0,.75.04,1.09.13v.8c-.33-.08-.65-.13-.95-.13-.46,0-.83.08-1.11.23-.28.16-.49.42-.63.79-.14.37-.21.87-.21,1.51s.06,1.17.19,1.55c.13.38.32.65.57.81.25.16.58.24.97.24.33,0,.72-.08,1.17-.23v.79c-.44.16-.89.23-1.34.23-.83,0-1.46-.26-1.88-.79Z"/>
        <path class="cls-2" d="M104.94,20.87h-3.56c.01.57.09,1.02.22,1.36.14.33.34.57.61.71s.62.21,1.04.21c.38,0,.85-.08,1.39-.24v.78c-.27.08-.52.14-.76.18-.24.04-.48.05-.73.05-.62,0-1.13-.11-1.52-.33-.4-.22-.69-.58-.89-1.08-.2-.5-.3-1.15-.3-1.97,0-1.15.2-1.99.61-2.53s.98-.81,1.7-.81,1.25.27,1.62.8c.37.54.56,1.39.56,2.56v.31ZM101.75,18.41c-.24.35-.36.95-.38,1.81h2.67c0-.59-.07-1.06-.17-1.4-.11-.34-.25-.58-.44-.72-.19-.14-.42-.21-.69-.21-.43,0-.76.17-1,.52Z"/>
      </g>
    </g>
  </g>
</svg>