<?xml version="1.0" encoding="UTF-8"?>
<svg id="Layer_2" data-name="Layer 2" xmlns="http://www.w3.org/2000/svg" viewBox="0 0 39.35 25.05">
  <defs>
    <style>
      .cls-1 {
        fill: #f26822;
      }

      .cls-2 {
        fill: #f3f3f3;
      }
    </style>
  </defs>
  <g id="Layer_1-2" data-name="Layer 1">
    <g>
      <rect class="cls-1" x="26.47" y="12.17" width="25.05" height=".72" transform="translate(26.47 51.52) rotate(-90)"/>
      <g>
        <path class="cls-2" d="M13.51,22.91l-1.65-5.98h-6.85l-1.64,5.98H0L5.94,2.19h5.05l5.94,20.72h-3.42ZM5.82,13.98h5.22l-2.62-9.45-2.6,9.45Z"/>
        <path class="cls-2" d="M33.43,12.83v9.91c-1.48.25-2.88.38-4.2.38-2.26,0-4.13-.36-5.62-1.08-1.49-.72-2.61-1.86-3.37-3.42s-1.13-3.57-1.13-6.06c0-3.68.83-6.37,2.5-8.08s4.1-2.56,7.31-2.56c1.46,0,2.82.18,4.1.53v2.94c-1.33-.35-2.6-.53-3.79-.53-1.5,0-2.73.24-3.68.73s-1.66,1.29-2.13,2.42-.71,2.66-.71,4.59.23,3.36.69,4.47,1.14,1.91,2.04,2.39,2.04.73,3.44.73c.51,0,.96-.02,1.34-.06v-7.31h3.21Z"/>
      </g>
    </g>
  </g>
</svg>