<?xml version="1.0" standalone="no"?>
<!DOCTYPE svg PUBLIC "-//W3C//DTD SVG 20010904//EN"
 "http://www.w3.org/TR/2001/REC-SVG-20010904/DTD/svg10.dtd">
<svg version="1.0" xmlns="http://www.w3.org/2000/svg"
 width="255.000000pt" height="270.000000pt" viewBox="0 0 255.000000 270.000000"
 preserveAspectRatio="xMidYMid meet">

<g transform="translate(0.000000,270.000000) scale(0.100000,-0.100000)"
fill="#000000" stroke="none">
<path d="M0 1350 l0 -1350 1275 0 1275 0 0 1350 0 1350 -1275 0 -1275 0 0
-1350z m1115 975 c82 -141 73 -313 -27 -467 -30 -47 -31 -48 -82 -48 -28 0
-60 -6 -71 -14 -11 -7 -46 -15 -78 -18 -45 -4 -64 -11 -86 -32 l-28 -27 -17
26 c-42 63 -129 83 -200 44 l-38 -20 -43 45 c-44 46 -97 145 -110 204 l-7 33
39 -24 c70 -44 131 -61 223 -60 234 2 406 163 418 391 l5 84 39 -39 c21 -21
50 -56 63 -78z m-456 69 c2 -2 -7 -19 -19 -40 l-23 -37 24 -18 24 -18 -40 6
c-22 3 -41 7 -42 7 -1 1 9 20 24 41 14 21 22 40 16 42 -6 2 -19 10 -29 18 -17
13 -15 14 21 8 22 -3 42 -7 44 -9z m70 -166 c-24 -46 -24 -46 4 -51 13 -3 8
-5 -15 -6 -21 0 -38 1 -38 4 0 2 9 19 20 37 l19 32 -27 12 c-26 12 -26 12 14
11 l42 -2 -19 -37z m117 -83 c-20 -31 -20 -35 1 -35 9 0 14 -3 10 -6 -3 -3
-15 -3 -26 1 -19 6 -20 8 -5 30 12 18 12 24 2 28 -7 3 -2 6 11 6 23 1 23 0 7
-24z m-346 -1085 c0 -93 -1 -100 -20 -100 -19 0 -20 7 -20 100 0 93 1 100 20
100 19 0 20 -7 20 -100z m1170 43 l0 -57 34 33 c19 18 42 31 51 29 16 -3 14
-7 -10 -36 l-27 -32 26 -35 c31 -40 32 -45 7 -45 -11 0 -29 14 -41 30 -24 34
-40 31 -40 -6 0 -17 -5 -24 -20 -24 -19 0 -20 7 -20 100 0 93 1 100 20 100 18
0 20 -7 20 -57z m168 40 c-2 -10 -10 -18 -18 -18 -8 0 -16 8 -18 18 -2 12 3
17 18 17 15 0 20 -5 18 -17z m-1413 -13 c0 -10 -11 -15 -35 -15 -20 0 -35 -5
-35 -12 0 -6 16 -22 35 -35 40 -27 50 -66 24 -92 -23 -23 -97 -18 -102 6 -3
14 3 17 34 15 50 -3 59 24 14 43 -49 20 -64 64 -34 95 21 21 99 17 99 -5z
m715 -5 c0 -8 9 -15 20 -15 11 0 20 -6 20 -14 0 -7 -9 -16 -20 -19 -15 -4 -20
-14 -20 -42 0 -28 5 -38 20 -42 32 -8 24 -33 -10 -33 -36 0 -50 23 -50 79 0
23 -5 41 -10 41 -6 0 -1 14 12 30 24 33 38 38 38 15z m-490 -35 c11 -11 20
-31 20 -45 0 -23 -4 -25 -46 -25 -32 0 -44 -4 -41 -12 2 -7 20 -13 41 -13 52
0 45 -29 -8 -33 -51 -4 -76 19 -76 70 0 45 28 78 65 78 14 0 34 -9 45 -20z
m155 -5 c14 -13 25 -33 25 -45 0 -17 -6 -20 -51 -20 -46 0 -50 -2 -38 -16 8
-10 24 -14 46 -12 26 3 33 1 31 -11 -2 -11 -17 -17 -44 -19 -36 -3 -45 1 -64
25 -26 33 -21 79 11 106 29 24 55 21 84 -8z m88 13 c4 -10 7 -10 18 0 50 47
106 -48 69 -118 -9 -18 -19 -21 -46 -18 -33 4 -34 3 -34 -29 0 -26 -4 -33 -20
-33 -19 0 -20 7 -20 105 0 84 3 105 14 105 8 0 16 -6 19 -12z m352 2 c4 -7 12
-7 25 0 26 14 40 12 40 -4 0 -8 -12 -21 -27 -28 -24 -11 -28 -20 -31 -61 -3
-39 -6 -47 -23 -47 -17 0 -19 7 -19 68 0 38 3 72 7 75 9 10 21 9 28 -3z m186
0 c16 -9 19 -22 19 -75 0 -60 -9 -80 -25 -55 -5 8 -11 7 -20 0 -8 -6 -26 -10
-42 -8 -23 2 -29 9 -31 33 -4 34 18 55 60 55 21 0 26 4 21 15 -4 11 -16 15
-36 13 -33 -3 -49 17 -20 25 32 8 54 7 74 -3z m158 1 c19 -12 4 -33 -18 -26
-24 7 -43 -18 -39 -52 3 -24 7 -28 36 -28 24 0 32 -4 30 -15 -5 -22 -66 -25
-89 -4 -22 20 -26 82 -6 106 20 26 61 35 86 19z m249 -69 c3 -67 1 -72 -18
-72 -18 0 -20 6 -20 76 0 66 2 75 18 72 14 -3 18 -16 20 -76z m72 68 c0 -6 10
-5 25 2 19 8 31 8 50 0 23 -11 25 -17 25 -77 0 -58 -2 -65 -20 -65 -18 0 -20
7 -20 54 0 30 -5 58 -10 61 -22 13 -40 -17 -40 -66 0 -42 -3 -49 -20 -49 -18
0 -20 7 -20 75 0 60 3 75 15 75 8 0 15 -4 15 -10z m270 -5 c0 -8 -4 -15 -10
-15 -5 0 -10 -10 -10 -23 0 -29 -18 -47 -47 -47 -13 0 -23 -4 -23 -10 0 -5 15
-10 33 -10 55 0 76 -40 38 -74 -27 -24 -114 -19 -119 7 -2 10 0 26 4 35 4 9 6
21 5 26 -1 4 3 14 9 21 8 9 8 15 0 20 -17 10 -12 63 8 74 9 6 38 11 65 11 35
0 47 -4 47 -15z m-1170 -385 c0 -27 3 -30 24 -24 13 3 34 1 45 -6 18 -9 21
-20 21 -75 0 -58 -2 -65 -20 -65 -18 0 -20 7 -20 54 0 37 -4 56 -14 59 -23 9
-36 -15 -36 -65 0 -41 -3 -48 -20 -48 -19 0 -20 7 -20 100 0 93 1 100 20 100
16 0 20 -7 20 -30z m-70 9 c0 -5 -17 -48 -37 -95 -31 -71 -40 -84 -60 -84
l-23 0 29 58 c15 31 32 67 35 80 7 21 4 22 -38 22 -34 0 -46 4 -46 15 0 12 14
15 70 15 42 0 70 -4 70 -11z m374 -5 c25 -24 19 -50 -19 -93 -19 -21 -35 -41
-35 -45 0 -3 16 -6 35 -6 24 0 35 -5 35 -15 0 -12 -14 -15 -65 -15 -41 0 -65
4 -65 11 0 6 20 34 45 61 25 28 45 57 45 64 0 20 -25 28 -48 15 -15 -8 -23 -7
-32 3 -25 32 74 51 104 20z m154 4 c16 -16 15 -43 -3 -61 -13 -13 -13 -16 0
-27 22 -19 19 -67 -5 -80 -30 -16 -104 -9 -108 11 -2 13 6 16 40 15 37 -1 43
2 43 19 0 14 -8 21 -27 23 -37 4 -35 25 3 39 39 15 33 38 -9 38 -34 0 -47 8
-37 24 9 15 88 14 103 -1z m77 -38 c3 -6 15 -5 31 2 19 9 30 9 44 0 14 -8 26
-8 50 1 29 11 34 10 51 -12 13 -16 19 -39 19 -77 0 -47 -2 -54 -20 -54 -17 0
-20 7 -20 48 0 50 -13 74 -36 65 -10 -3 -14 -22 -14 -59 0 -47 -2 -54 -20 -54
-17 0 -20 7 -20 48 0 50 -13 74 -36 65 -10 -3 -14 -22 -14 -59 0 -47 -2 -54
-20 -54 -18 0 -20 7 -20 75 0 68 9 91 25 65z"/>
<path d="M1050 2170 c-18 -12 -2 -12 25 0 13 6 15 9 5 9 -8 0 -22 -4 -30 -9z"/>
<path d="M587 1074 c-14 -14 -6 -24 19 -24 16 0 24 5 22 13 -5 14 -31 21 -41
11z"/>
<path d="M740 1065 c-11 -13 -8 -15 20 -15 21 0 30 4 28 13 -7 18 -33 20 -48
2z"/>
<path d="M912 1071 c-8 -5 -12 -22 -10 -42 2 -25 8 -34 22 -34 23 0 36 32 25
63 -9 24 -16 26 -37 13z"/>
<path d="M1377 1023 c-14 -13 -6 -33 12 -33 19 0 35 23 24 34 -8 8 -28 8 -36
-1z"/>
<path d="M2086 1071 c-9 -14 4 -41 19 -41 15 0 28 27 19 41 -3 5 -11 9 -19 9
-8 0 -16 -4 -19 -9z"/>
<path d="M2074 949 c-3 -6 -2 -15 4 -21 15 -15 56 -5 60 15 3 13 -3 17 -27 17
-16 0 -33 -5 -37 -11z"/>
</g>
</svg>
